<svg xmlns="http://www.w3.org/2000/svg" xmlns:xlink="http://www.w3.org/1999/xlink" width="274" height="82.489" viewBox="0 0 274 82.489">
  <defs>
    <rect id="rect-1" width="274" height="82.489" x="0" y="0"/>
    <mask id="mask-2" maskContentUnits="userSpaceOnUse" maskUnits="userSpaceOnUse">
      <rect width="274" height="82.489" x="0" y="0" fill="black"/>
      <use fill="white" xlink:href="#rect-1"/>
    </mask>
  </defs>
  <g>
    <use fill="none" xlink:href="#rect-1"/>
    <g mask="url(#mask-2)">
      <path fill="rgb(29,29,29)" fill-rule="evenodd" d="M0 2.70019531V79.6636963c.05627441.55175781.52233887.97058105 1.0769043.96777344h13.20446777c.59484863 0 1.07702637-.48217774 1.07702637-1.07702637V55.7989502c-.00585938-.42370606.2409668-.81018067.62780761-.98327637.38684083-.1730957.83947754-.09936524 1.15148926.18725586 4.11437989 3.41381836 9.3449707 5.18701172 14.68725586 4.9790039 16.12304688 0 26.9083252-12.76745605 26.9083252-30.04553222 0-16.88806153-9.61462403-29.65539551-26.33093262-29.65539551-5.77148438-.2043457-11.38708496 1.89587402-15.60803223 5.83740234-.31152343.30163575-.77368164.38708496-1.17248535.2166748-.39868164-.17041015-.65637207-.56347655-.65368652-.9970703V2.7001953c0-.59472656-.48217774-1.0769043-1.0769043-1.0769043H1.0769043C.48217773 1.62329102 0 2.10546876 0 2.70019532zm15.2022705 27.42346192c0-10.09851075 6.461792-16.01391602 14.26574708-16.01391602v.03125c7.88208008 0 14.1566162 5.77490234 14.1566162 15.98266602 0 10.2076416-6.27453612 16.12316894-14.1566162 16.12316894-7.88208008 0-14.26574707-6.02478027-14.26574707-16.12316894z"/>
      <path fill="rgb(255,255,255)" fill-rule="evenodd" d="M78.74280832 37.49062945c5.8358141 0 10.56667616 4.73086206 10.56667616 10.56667616s-4.73086206 10.56667616-10.56667616 10.56667616-10.56667616-4.73086206-10.56667616-10.56667616c.03409535-5.82163285 4.7450433-10.5325808 10.56667616-10.56667616z"/>
      <path fill="rgb(29,29,29)" fill-rule="evenodd" d="M103.51284534 57.62506408V2.70019938c0-.59478756.48217058-1.07695814 1.07695813-1.07695814h12.56451154c.59478755 0 1.07695813.48217058 1.07695813 1.07695813V5.3379664c.00304572.44334145.2774725.83951542.69145062.99820703.41397813.15869162.88290638.04747041 1.18152005-.28023494 3.9514984-3.9013702 9.29046487-6.07400954 14.8432925-6.0403304 7.11728853 0 12.98592994 2.8250641 16.13876389 8.03816577.18218975.29877502.49994545.48854174.84938668.5072618.34944123.01872007.68565225-.13601272.89871927-.41361326 4.40148106-5.93107377 10.11404159-8.1318143 17.16889775-8.1318143 10.56667616 0 20.64950157 6.36810026 20.64950157 21.67963543v35.89860439c0 .59478755-.48217058 1.07695813-1.07695813 1.07695813h-12.81424096c-.59478755 0-1.07695813-.48217058-1.07695813-1.07695813V24.81686129c0-6.149587-3.01236115-10.7851894-10.0828254-10.7851894-6.61782969 0-10.56667617 5.10384506-10.56667617 11.25343207v32.33996012c0 .59478756-.48217058 1.07695814-1.07695813 1.07695814h-13.15761891c-.59478755 0-1.07695813-.48217058-1.07695813-1.07695814v-32.7769866c0-6.14958702-3.12161778-10.78518941-10.0828254-10.78518941-6.96120764 0-10.6759328 4.99458843-10.6759328 11.25343207v32.30874394c0 .59478756-.48217057 1.07695814-1.07695812 1.07695814h-13.22005127c-.29889028.02171684-.59331323-.08208645-.81249302-.2864568-.2191798-.20437035-.34329347-.49082417-.34250556-.79050134z"/>
      <path fill="rgb(29,29,29)" fill-rule="evenodd" d="M216.84777832 58.53295898c-.2532959-.15612793-.55944824-.20214843-.8474121-.1274414l-11.86218263 3.16845703c-.54138183.14526367-.88085937.68151855-.7803955 1.23303223 2.07580566 10.50415039 12.36157226 19.6661377 27.54821777 19.6661377 21.46118164 0 29.93640137-14.31262208 29.93640137-29.9206543V2.7001953c0-.59472656-.48217774-1.0769043-1.07702637-1.0769043H247.0760498c-.59484863 0-1.07702636.48217774-1.07702636 1.0769043v2.34118653c-.00366211.43481445-.26831055.8248291-.67114258.98864746-.40270996.16381836-.86450195.06933593-1.17053223-.23937989-2.68469238-2.84069824-7.39831543-5.21313476-14.40637207-5.21313476-15.60803222 0-26.5336914 12.75183105-26.5336914 27.84484863 0 15.99829102 11.3314209 27.7199707 26.5336914 27.7199707 8.24108887 0 13.57910157-3.58984375 15.88903809-7.30456543v4.1673584c0 11.03491211-5.44714356 15.90454102-15.1866455 15.90454102-6.86755372 0-11.6904297-3.99560547-13.11071778-9.67700195-.06274414-.29089356-.24145508-.5435791-.49487305-.69970704zm15.5723877-44.50134277c7.42944335 0 13.45410156 5.57214356 13.45410156 14.390625 0 8.81860352-5.44726563 14.5-13.45410156 14.5-8.00695801 0-13.6883545-5.68139648-13.6883545-14.5 0-8.81848144 6.25878907-14.390625 13.6883545-14.390625z"/>
      <path fill="rgb(0,0,0)" fill-rule="evenodd" d="M273.73254395 54.04467773c-.52746582-1.31506347-1.79638672-2.1817627-3.21325684-2.19458007-1.91882324-.01745606-3.49316406 1.51501464-3.52734375 3.43371582-.02526856 1.41662597.80700684 2.70849609 2.1072998 3.27111816 1.30041504.56262207 2.81176758.28479004 3.82702637-.70361328 1.01525879-.98828125 1.33374024-2.49157715.80627442-3.80664063zm-.58056641 2.40014649c-.4597168 1.0345459-1.50109863 1.6866455-2.63256836 1.64855957v.03112793c-.73278809-.00354004-1.43261719-.30493164-1.93884277-.8347168-.50622559-.52978515-.77539063-1.2425537-.74572754-1.97473144.00061035-1.13208008.68811035-2.1505127 1.73779297-2.5744629 1.04968261-.42395019 2.25170898-.1685791 3.03833007.64550782.7866211.81408691 1.00073243 2.02416992.54101563 3.05871582zm-2.75744629-.6303711h-.28088379v1.35791016h-.8116455v-3.7770996h1.42028808c.33239746-.01696778.6574707.10119628.90148926.32751464.24389648.22631836.38598632.54162598.39404297.87426758-.00073243.50061035-.31164551.94824219-.78039551 1.1237793l.8116455 1.45153808h-.93652343l-.71801758-1.35791015zm.7803955-1.20166015c0 .31213379-.21850585.51501465-.59313964.51501465h-.46826172v-1.04577637h.46826172c.15222168-.0234375.3071289.02246094.421875.12524414.11486816.1027832.17773437.25146484.17126465.40551758z"/>
    </g>
  </g>
</svg>
